<?xml version="1.0" encoding="UTF-8" standalone="no"?>
<!DOCTYPE svg PUBLIC "-//W3C//DTD SVG 1.1//EN"
 "http://www.w3.org/Graphics/SVG/1.1/DTD/svg11.dtd">
<!-- Generated by graphviz version 2.47.0 (20210316.0004)
 -->
<!-- Title: dependencies Pages: 1 -->
<svg width="504pt" height="211pt"
 viewBox="0.00 0.00 504.00 211.00" xmlns="http://www.w3.org/2000/svg" xmlns:xlink="http://www.w3.org/1999/xlink">
<g id="graph0" class="graph" transform="scale(1 1) rotate(0) translate(4 207)">
<title>dependencies</title>
<polygon fill="white" stroke="transparent" points="-4,4 -4,-207 500,-207 500,4 -4,4"/>
<text text-anchor="start" x="227.01" y="-42.4" font-family="Times-12" font-weight="bold" font-size="14.00">Legend</text>
<polygon fill="#ffffb3" stroke="transparent" points="14,-10 14,-30 34,-30 34,-10 14,-10"/>
<text text-anchor="start" x="37.63" y="-15.4" font-family="Times-12" font-size="14.00"> &#160;Declarations</text>
<polygon fill="#8dd3c7" stroke="transparent" points="127,-10 127,-30 147,-30 147,-10 127,-10"/>
<text text-anchor="start" x="150.73" y="-15.4" font-family="Times-12" font-size="14.00"> &#160;Module</text>
<polygon fill="#80b1d3" stroke="transparent" points="213,-10 213,-30 233,-30 233,-10 213,-10"/>
<text text-anchor="start" x="236.78" y="-15.4" font-family="Times-12" font-size="14.00"> &#160;Bootstrap</text>
<polygon fill="#fdb462" stroke="transparent" points="310,-10 310,-30 330,-30 330,-10 310,-10"/>
<text text-anchor="start" x="333.67" y="-15.4" font-family="Times-12" font-size="14.00"> &#160;Providers</text>
<polygon fill="#fb8072" stroke="transparent" points="406,-10 406,-30 426,-30 426,-10 406,-10"/>
<text text-anchor="start" x="429.73" y="-15.4" font-family="Times-12" font-size="14.00"> &#160;Exports</text>
<g id="clust1" class="cluster">
<title>cluster_StockModule</title>
<polygon fill="none" stroke="black" stroke-dasharray="1,5" points="110,-70 110,-195 386,-195 386,-70 110,-70"/>
</g>
<g id="clust3" class="cluster">
<title>cluster_StockModule_imports</title>
<polygon fill="none" stroke="black" points="266,-78 266,-130 378,-130 378,-78 266,-78"/>
</g>
<g id="clust6" class="cluster">
<title>cluster_StockModule_providers</title>
<polygon fill="none" stroke="black" points="118,-78 118,-130 258,-130 258,-78 118,-78"/>
</g>
<!-- RabbitModule -->
<g id="node1" class="node">
<title>RabbitModule</title>
<polygon fill="#8dd3c7" stroke="black" points="370.38,-122 367.38,-126 346.38,-126 343.38,-122 273.62,-122 273.62,-86 370.38,-86 370.38,-122"/>
<text text-anchor="middle" x="322" y="-99.8" font-family="Times,serif" font-size="14.00">RabbitModule</text>
</g>
<!-- StockModule -->
<g id="node2" class="node">
<title>StockModule</title>
<polygon fill="#8dd3c7" stroke="black" points="300.94,-187 297.94,-191 276.94,-191 273.94,-187 209.06,-187 209.06,-151 300.94,-151 300.94,-187"/>
<text text-anchor="middle" x="255" y="-164.8" font-family="Times,serif" font-size="14.00">StockModule</text>
</g>
<!-- RabbitModule&#45;&gt;StockModule -->
<g id="edge1" class="edge">
<title>RabbitModule&#45;&gt;StockModule</title>
<path fill="none" stroke="black" d="M287.14,-122.11C287.14,-122.11 287.14,-140.99 287.14,-140.99"/>
<polygon fill="black" stroke="black" points="283.64,-140.99 287.14,-150.99 290.64,-140.99 283.64,-140.99"/>
</g>
<!-- StockService -->
<g id="node3" class="node">
<title>StockService</title>
<ellipse fill="#fdb462" stroke="black" cx="188" cy="-104" rx="61.98" ry="18"/>
<text text-anchor="middle" x="188" y="-99.8" font-family="Times,serif" font-size="14.00">StockService</text>
</g>
<!-- StockService&#45;&gt;StockModule -->
<g id="edge2" class="edge">
<title>StockService&#45;&gt;StockModule</title>
<path fill="none" stroke="black" d="M229.63,-117.47C229.63,-117.47 229.63,-140.86 229.63,-140.86"/>
<polygon fill="black" stroke="black" points="226.13,-140.86 229.63,-150.86 233.13,-140.86 226.13,-140.86"/>
</g>
</g>
</svg>
