<?xml version="1.0" encoding="UTF-8" standalone="no"?>
<!DOCTYPE svg PUBLIC "-//W3C//DTD SVG 1.1//EN"
 "http://www.w3.org/Graphics/SVG/1.1/DTD/svg11.dtd">
<!-- Generated by graphviz version 2.47.0 (20210316.0004)
 -->
<!-- Title: dependencies Pages: 1 -->
<svg width="504pt" height="211pt"
 viewBox="0.00 0.00 504.00 211.00" xmlns="http://www.w3.org/2000/svg" xmlns:xlink="http://www.w3.org/1999/xlink">
<g id="graph0" class="graph" transform="scale(1 1) rotate(0) translate(4 207)">
<title>dependencies</title>
<polygon fill="white" stroke="transparent" points="-4,4 -4,-207 500,-207 500,4 -4,4"/>
<text text-anchor="start" x="227.01" y="-42.4" font-family="Times-12" font-weight="bold" font-size="14.00">Legend</text>
<polygon fill="#ffffb3" stroke="transparent" points="14,-10 14,-30 34,-30 34,-10 14,-10"/>
<text text-anchor="start" x="37.63" y="-15.4" font-family="Times-12" font-size="14.00"> &#160;Declarations</text>
<polygon fill="#8dd3c7" stroke="transparent" points="127,-10 127,-30 147,-30 147,-10 127,-10"/>
<text text-anchor="start" x="150.73" y="-15.4" font-family="Times-12" font-size="14.00"> &#160;Module</text>
<polygon fill="#80b1d3" stroke="transparent" points="213,-10 213,-30 233,-30 233,-10 213,-10"/>
<text text-anchor="start" x="236.78" y="-15.4" font-family="Times-12" font-size="14.00"> &#160;Bootstrap</text>
<polygon fill="#fdb462" stroke="transparent" points="310,-10 310,-30 330,-30 330,-10 310,-10"/>
<text text-anchor="start" x="333.67" y="-15.4" font-family="Times-12" font-size="14.00"> &#160;Providers</text>
<polygon fill="#fb8072" stroke="transparent" points="406,-10 406,-30 426,-30 426,-10 406,-10"/>
<text text-anchor="start" x="429.73" y="-15.4" font-family="Times-12" font-size="14.00"> &#160;Exports</text>
<g id="clust1" class="cluster">
<title>cluster_InventoryModule</title>
<polygon fill="none" stroke="black" stroke-dasharray="1,5" points="94,-70 94,-195 402,-195 402,-70 94,-70"/>
</g>
<g id="clust6" class="cluster">
<title>cluster_InventoryModule_providers</title>
<polygon fill="none" stroke="black" points="222,-78 222,-130 394,-130 394,-78 222,-78"/>
</g>
<g id="clust3" class="cluster">
<title>cluster_InventoryModule_imports</title>
<polygon fill="none" stroke="black" points="102,-78 102,-130 214,-130 214,-78 102,-78"/>
</g>
<!-- RabbitModule -->
<g id="node1" class="node">
<title>RabbitModule</title>
<polygon fill="#8dd3c7" stroke="black" points="206.38,-122 203.38,-126 182.38,-126 179.38,-122 109.62,-122 109.62,-86 206.38,-86 206.38,-122"/>
<text text-anchor="middle" x="158" y="-99.8" font-family="Times,serif" font-size="14.00">RabbitModule</text>
</g>
<!-- InventoryModule -->
<g id="node2" class="node">
<title>InventoryModule</title>
<polygon fill="#8dd3c7" stroke="black" points="215.98,-187 212.98,-191 191.98,-191 188.98,-187 102.02,-187 102.02,-151 215.98,-151 215.98,-187"/>
<text text-anchor="middle" x="159" y="-164.8" font-family="Times,serif" font-size="14.00">InventoryModule</text>
</g>
<!-- RabbitModule&#45;&gt;InventoryModule -->
<g id="edge1" class="edge">
<title>RabbitModule&#45;&gt;InventoryModule</title>
<path fill="none" stroke="black" d="M141.85,-122.11C141.85,-122.11 141.85,-140.99 141.85,-140.99"/>
<polygon fill="black" stroke="black" points="138.35,-140.99 141.85,-150.99 145.35,-140.99 138.35,-140.99"/>
</g>
<!-- RabbitModule&#45;&gt;InventoryModule -->
<g id="edge2" class="edge">
<title>RabbitModule&#45;&gt;InventoryModule</title>
<path fill="none" stroke="black" d="M174.15,-122.11C174.15,-122.11 174.15,-140.99 174.15,-140.99"/>
<polygon fill="black" stroke="black" points="170.65,-140.99 174.15,-150.99 177.65,-140.99 170.65,-140.99"/>
</g>
<!-- InventoryService -->
<g id="node3" class="node">
<title>InventoryService</title>
<ellipse fill="#fdb462" stroke="black" cx="308" cy="-104" rx="77.57" ry="18"/>
<text text-anchor="middle" x="308" y="-99.8" font-family="Times,serif" font-size="14.00">InventoryService</text>
</g>
<!-- InventoryService&#45;&gt;InventoryModule -->
<g id="edge3" class="edge">
<title>InventoryService&#45;&gt;InventoryModule</title>
<path fill="none" stroke="black" d="M230.34,-104C219.08,-104 211.21,-104 211.21,-104 211.21,-104 211.21,-140.89 211.21,-140.89"/>
<polygon fill="black" stroke="black" points="207.71,-140.89 211.21,-150.89 214.71,-140.89 207.71,-140.89"/>
</g>
</g>
</svg>
