<?xml version="1.0" encoding="UTF-8" standalone="no"?>
<!DOCTYPE svg PUBLIC "-//W3C//DTD SVG 1.1//EN"
 "http://www.w3.org/Graphics/SVG/1.1/DTD/svg11.dtd">
<!-- Generated by graphviz version 2.47.0 (20210316.0004)
 -->
<!-- Title: dependencies Pages: 1 -->
<svg width="1184pt" height="222pt"
 viewBox="0.00 0.00 1184.00 222.00" xmlns="http://www.w3.org/2000/svg" xmlns:xlink="http://www.w3.org/1999/xlink">
<g id="graph0" class="graph" transform="scale(1 1) rotate(0) translate(4 218)">
<title>dependencies</title>
<polygon fill="white" stroke="transparent" points="-4,4 -4,-218 1180,-218 1180,4 -4,4"/>
<text text-anchor="start" x="567.01" y="-42.4" font-family="Times-12" font-weight="bold" font-size="14.00">Legend</text>
<polygon fill="#ffffb3" stroke="transparent" points="354,-10 354,-30 374,-30 374,-10 354,-10"/>
<text text-anchor="start" x="377.63" y="-15.4" font-family="Times-12" font-size="14.00"> &#160;Declarations</text>
<polygon fill="#8dd3c7" stroke="transparent" points="467,-10 467,-30 487,-30 487,-10 467,-10"/>
<text text-anchor="start" x="490.73" y="-15.4" font-family="Times-12" font-size="14.00"> &#160;Module</text>
<polygon fill="#80b1d3" stroke="transparent" points="553,-10 553,-30 573,-30 573,-10 553,-10"/>
<text text-anchor="start" x="576.78" y="-15.4" font-family="Times-12" font-size="14.00"> &#160;Bootstrap</text>
<polygon fill="#fdb462" stroke="transparent" points="650,-10 650,-30 670,-30 670,-10 650,-10"/>
<text text-anchor="start" x="673.67" y="-15.4" font-family="Times-12" font-size="14.00"> &#160;Providers</text>
<polygon fill="#fb8072" stroke="transparent" points="746,-10 746,-30 766,-30 766,-10 746,-10"/>
<text text-anchor="start" x="769.73" y="-15.4" font-family="Times-12" font-size="14.00"> &#160;Exports</text>
<g id="clust1" class="cluster">
<title>cluster_GatewayModule</title>
<polygon fill="none" stroke="black" stroke-dasharray="1,5" points="8,-70 8,-198 188,-198 188,-70 8,-70"/>
</g>
<g id="clust6" class="cluster">
<title>cluster_GatewayModule_providers</title>
<polygon fill="none" stroke="black" points="16,-78 16,-130 180,-130 180,-78 16,-78"/>
</g>
<g id="clust7" class="cluster">
<title>cluster_InventoryModule</title>
<polygon fill="none" stroke="black" stroke-dasharray="1,5" points="196,-70 196,-198 504,-198 504,-70 196,-70"/>
</g>
<g id="clust9" class="cluster">
<title>cluster_InventoryModule_imports</title>
<polygon fill="none" stroke="black" points="384,-78 384,-130 496,-130 496,-78 384,-78"/>
</g>
<g id="clust12" class="cluster">
<title>cluster_InventoryModule_providers</title>
<polygon fill="none" stroke="black" points="204,-78 204,-130 376,-130 376,-78 204,-78"/>
</g>
<g id="clust13" class="cluster">
<title>cluster_RabbitModule</title>
<polygon fill="none" stroke="black" stroke-dasharray="1,5" points="512,-138 512,-206 820,-206 820,-138 512,-138"/>
</g>
<g id="clust16" class="cluster">
<title>cluster_RabbitModule_exports</title>
<polygon fill="none" stroke="black" points="688,-146 688,-198 812,-198 812,-146 688,-146"/>
</g>
<g id="clust18" class="cluster">
<title>cluster_RabbitModule_providers</title>
<polygon fill="none" stroke="black" points="520,-146 520,-198 680,-198 680,-146 520,-146"/>
</g>
<g id="clust19" class="cluster">
<title>cluster_SecurityModule</title>
<polygon fill="none" stroke="black" stroke-dasharray="1,5" points="992,-70 992,-198 1168,-198 1168,-70 992,-70"/>
</g>
<g id="clust24" class="cluster">
<title>cluster_SecurityModule_providers</title>
<polygon fill="none" stroke="black" points="1000,-78 1000,-130 1160,-130 1160,-78 1000,-78"/>
</g>
<g id="clust25" class="cluster">
<title>cluster_StockModule</title>
<polygon fill="none" stroke="black" stroke-dasharray="1,5" points="828,-70 828,-198 984,-198 984,-70 828,-70"/>
</g>
<g id="clust30" class="cluster">
<title>cluster_StockModule_providers</title>
<polygon fill="none" stroke="black" points="836,-78 836,-130 976,-130 976,-78 836,-78"/>
</g>
<!-- GatewayService -->
<g id="node1" class="node">
<title>GatewayService</title>
<ellipse fill="#fdb462" stroke="black" cx="98" cy="-104" rx="74.11" ry="18"/>
<text text-anchor="middle" x="98" y="-99.8" font-family="Times,serif" font-size="14.00">GatewayService</text>
</g>
<!-- GatewayModule -->
<g id="node2" class="node">
<title>GatewayModule</title>
<polygon fill="#8dd3c7" stroke="black" points="152.8,-190 149.8,-194 128.8,-194 125.8,-190 43.2,-190 43.2,-154 152.8,-154 152.8,-190"/>
<text text-anchor="middle" x="98" y="-167.8" font-family="Times,serif" font-size="14.00">GatewayModule</text>
</g>
<!-- GatewayService&#45;&gt;GatewayModule -->
<g id="edge1" class="edge">
<title>GatewayService&#45;&gt;GatewayModule</title>
<path fill="none" stroke="black" d="M98,-122.22C98,-122.22 98,-143.73 98,-143.73"/>
<polygon fill="black" stroke="black" points="94.5,-143.73 98,-153.73 101.5,-143.73 94.5,-143.73"/>
</g>
<!-- RabbitModule -->
<g id="node3" class="node">
<title>RabbitModule</title>
<polygon fill="#8dd3c7" stroke="black" points="488.38,-122 485.38,-126 464.38,-126 461.38,-122 391.62,-122 391.62,-86 488.38,-86 488.38,-122"/>
<text text-anchor="middle" x="440" y="-99.8" font-family="Times,serif" font-size="14.00">RabbitModule</text>
</g>
<!-- InventoryModule -->
<g id="node4" class="node">
<title>InventoryModule</title>
<polygon fill="#8dd3c7" stroke="black" points="495.98,-190 492.98,-194 471.98,-194 468.98,-190 382.02,-190 382.02,-154 495.98,-154 495.98,-190"/>
<text text-anchor="middle" x="439" y="-167.8" font-family="Times,serif" font-size="14.00">InventoryModule</text>
</g>
<!-- RabbitModule&#45;&gt;InventoryModule -->
<g id="edge2" class="edge">
<title>RabbitModule&#45;&gt;InventoryModule</title>
<path fill="none" stroke="black" d="M423.85,-122.22C423.85,-122.22 423.85,-143.73 423.85,-143.73"/>
<polygon fill="black" stroke="black" points="420.35,-143.73 423.85,-153.73 427.35,-143.73 420.35,-143.73"/>
</g>
<!-- RabbitModule&#45;&gt;InventoryModule -->
<g id="edge3" class="edge">
<title>RabbitModule&#45;&gt;InventoryModule</title>
<path fill="none" stroke="black" d="M456.15,-122.22C456.15,-122.22 456.15,-143.73 456.15,-143.73"/>
<polygon fill="black" stroke="black" points="452.65,-143.73 456.15,-153.73 459.65,-143.73 452.65,-143.73"/>
</g>
<!-- RabbitAccessor  -->
<g id="node6" class="node">
<title>RabbitAccessor </title>
<polygon fill="#fb8072" stroke="black" points="804.13,-190 695.87,-190 695.87,-154 804.13,-154 804.13,-190"/>
<text text-anchor="middle" x="750" y="-167.8" font-family="Times,serif" font-size="14.00">RabbitAccessor </text>
</g>
<!-- RabbitModule&#45;&gt;RabbitAccessor  -->
<g id="edge5" class="edge">
<title>RabbitModule&#45;&gt;RabbitAccessor </title>
<path fill="none" stroke="black" stroke-dasharray="5,2" d="M488.44,-104C575.62,-104 750,-104 750,-104 750,-104 750,-143.78 750,-143.78"/>
<polygon fill="black" stroke="black" points="746.5,-143.78 750,-153.78 753.5,-143.78 746.5,-143.78"/>
</g>
<!-- StockModule -->
<g id="node10" class="node">
<title>StockModule</title>
<polygon fill="#8dd3c7" stroke="black" points="939.94,-190 936.94,-194 915.94,-194 912.94,-190 848.06,-190 848.06,-154 939.94,-154 939.94,-190"/>
<text text-anchor="middle" x="894" y="-167.8" font-family="Times,serif" font-size="14.00">StockModule</text>
</g>
<!-- RabbitModule&#45;&gt;StockModule -->
<g id="edge8" class="edge">
<title>RabbitModule&#45;&gt;StockModule</title>
<path fill="none" stroke="black" d="M488.64,-95C591.98,-95 824.04,-95 824.04,-95 824.04,-95 824.04,-172 824.04,-172 824.04,-172 838.12,-172 838.12,-172"/>
<polygon fill="black" stroke="black" points="838.12,-175.5 848.12,-172 838.12,-168.5 838.12,-175.5"/>
</g>
<!-- InventoryService -->
<g id="node5" class="node">
<title>InventoryService</title>
<ellipse fill="#fdb462" stroke="black" cx="290" cy="-104" rx="77.57" ry="18"/>
<text text-anchor="middle" x="290" y="-99.8" font-family="Times,serif" font-size="14.00">InventoryService</text>
</g>
<!-- InventoryService&#45;&gt;InventoryModule -->
<g id="edge4" class="edge">
<title>InventoryService&#45;&gt;InventoryModule</title>
<path fill="none" stroke="black" d="M367.66,-104C378.92,-104 386.79,-104 386.79,-104 386.79,-104 386.79,-143.78 386.79,-143.78"/>
<polygon fill="black" stroke="black" points="383.29,-143.78 386.79,-153.78 390.29,-143.78 383.29,-143.78"/>
</g>
<!-- RabbitAccessor -->
<g id="node7" class="node">
<title>RabbitAccessor</title>
<ellipse fill="#fdb462" stroke="black" cx="600" cy="-172" rx="72.35" ry="18"/>
<text text-anchor="middle" x="600" y="-167.8" font-family="Times,serif" font-size="14.00">RabbitAccessor</text>
</g>
<!-- RabbitAccessor&#45;&gt;RabbitModule -->
<g id="edge6" class="edge">
<title>RabbitAccessor&#45;&gt;RabbitModule</title>
<path fill="none" stroke="black" d="M600,-153.98C600,-136.63 600,-113 600,-113 600,-113 498.44,-113 498.44,-113"/>
<polygon fill="black" stroke="black" points="498.44,-109.5 488.44,-113 498.44,-116.5 498.44,-109.5"/>
</g>
<!-- SecurityService -->
<g id="node8" class="node">
<title>SecurityService</title>
<ellipse fill="#fdb462" stroke="black" cx="1080" cy="-104" rx="72.35" ry="18"/>
<text text-anchor="middle" x="1080" y="-99.8" font-family="Times,serif" font-size="14.00">SecurityService</text>
</g>
<!-- SecurityModule -->
<g id="node9" class="node">
<title>SecurityModule</title>
<polygon fill="#8dd3c7" stroke="black" points="1133.2,-190 1130.2,-194 1109.2,-194 1106.2,-190 1026.8,-190 1026.8,-154 1133.2,-154 1133.2,-190"/>
<text text-anchor="middle" x="1080" y="-167.8" font-family="Times,serif" font-size="14.00">SecurityModule</text>
</g>
<!-- SecurityService&#45;&gt;SecurityModule -->
<g id="edge7" class="edge">
<title>SecurityService&#45;&gt;SecurityModule</title>
<path fill="none" stroke="black" d="M1080,-122.22C1080,-122.22 1080,-143.73 1080,-143.73"/>
<polygon fill="black" stroke="black" points="1076.5,-143.73 1080,-153.73 1083.5,-143.73 1076.5,-143.73"/>
</g>
<!-- StockService -->
<g id="node11" class="node">
<title>StockService</title>
<ellipse fill="#fdb462" stroke="black" cx="906" cy="-104" rx="61.98" ry="18"/>
<text text-anchor="middle" x="906" y="-99.8" font-family="Times,serif" font-size="14.00">StockService</text>
</g>
<!-- StockService&#45;&gt;StockModule -->
<g id="edge9" class="edge">
<title>StockService&#45;&gt;StockModule</title>
<path fill="none" stroke="black" d="M894,-121.87C894,-121.87 894,-143.54 894,-143.54"/>
<polygon fill="black" stroke="black" points="890.5,-143.54 894,-153.54 897.5,-143.54 890.5,-143.54"/>
</g>
</g>
</svg>
